<svg xmlns="http://www.w3.org/2000/svg" viewBox="0 0 48 48" fill="none">
  <!-- V3: Hexagon with Heartbeat Pulse — Modern Tech Feel -->
  <defs>
    <linearGradient id="v3bg" x1="0" y1="0" x2="48" y2="48" gradientUnits="userSpaceOnUse">
      <stop offset="0%" stop-color="#2563EB"/>
      <stop offset="50%" stop-color="#1D4ED8"/>
      <stop offset="100%" stop-color="#1E3A8A"/>
    </linearGradient>
  </defs>
  <!-- Hexagon -->
  <polygon
    points="24,2 44,14 44,34 24,46 4,34 4,14"
    fill="url(#v3bg)"
  />
  <polygon
    points="24,2 44,14 44,34 24,46 4,34 4,14"
    fill="white"
    opacity="0.05"
  />
  <!-- Heartbeat line -->
  <polyline
    points="8,24 14,24 17,24 20,16 23,33 26,12 29,30 32,21 35,24 40,24"
    stroke="white"
    stroke-width="2.5"
    stroke-linecap="round"
    stroke-linejoin="round"
    fill="none"
  />
  <!-- Subtle inner hexagon border -->
  <polygon
    points="24,6 40,16 40,32 24,42 8,32 8,16"
    fill="none"
    stroke="white"
    stroke-width="0.8"
    opacity="0.15"
  />
</svg>
